<?xml version="1.0" standalone="no"?><!DOCTYPE svg PUBLIC "-//W3C//DTD SVG 1.1//EN" "http://www.w3.org/Graphics/SVG/1.1/DTD/svg11.dtd"><svg width="32.1875" height="32" viewBox="0 0 32.1875 32" version="1.1" xmlns="http://www.w3.org/2000/svg" xmlns:xlink="http://www.w3.org/1999/xlink"><defs><style type="text/css"><![CDATA[
@font-face { font-family: ifont; src: url("//at.alicdn.com/t/font_1442373896_4754455.eot?#iefix") format("embedded-opentype"), url("//at.alicdn.com/t/font_1442373896_4754455.woff") format("woff"), url("//at.alicdn.com/t/font_1442373896_4754455.ttf") format("truetype"), url("//at.alicdn.com/t/font_1442373896_4754455.svg#ifont") format("svg"); }

]]></style></defs><g class="transform-group"><g transform="scale(0.03125, 0.03125)"><path d="M514.563055 948.645115l-1.015472-3.768708-1.212276 0 1.623131 5.406042c-0.004058 0.010145-0.008116 0.020289-0.012173 0.029419 0.00913 0.007101 0.01826 0.013188 0.026376 0.020289l0.335785 1.118946 1.17677 0 0.049708-0.161299c5.860518 2.583822 11.956391-5.587629 7.2767-10.673103C516.586897 940.036432 515.878806 944.627865 514.563055 948.645115zM336.658735 998.771467c-5.815882 2.226733-10.09892-2.726861-11.814367 2.769468 14.305873-0.132894 27.258461 12.044649 45.801722 12.461591C366.504061 1002.182072 345.231911 1006.430618 336.658735 998.771467zM42.66705 665.105381c1.729649-0.20492 4.189708 0.236368 4.423033-1.380676 0.539691-11.988854 1.431399-24.294218-8.864326-31.848879 5.805738-1.280245 3.729144 4.815628 10.343404 2.773526-0.030434-8.365213-5.871677-11.966535-13.300547-9.694152-1.183871-6.272388-8.899832-6.425571-5.902111-16.61072l-4.433177 0c0.154197 33.920401 7.314235 74.680271 20.686808 107.986925C63.610516 710.023511 43.23616 680.318179 42.66705 665.105381zM645.440189 935.082839c0.401725 2.953085 7.514083 6.647737 8.859254 4.153187C650.697106 938.468082 651.151583 933.878678 645.440189 935.082839zM318.929069 995.997942c-3.562773-2.655849-5.859504-6.497597-8.858239-9.68705-3.36394-1.001269-7.555676-1.239667-10.34239-2.771497-30.876015-23.052522-66.394186-33.494329-91.608516-60.922204-26.976442-6.629477-33.689105-39.36905-62.04115-40.144095 11.599302 13.46286 20.966799 29.985322 35.453245 40.144095 3.813344 2.67208 9.151417 2.642661 13.299532 5.540964 7.600312 5.324885 12.999253 14.188196 20.679707 19.380188 4.227243 2.857726 10.229785 5.663714 14.779625 8.316519 25.792571 15.005849 58.433741 36.001052 87.165194 41.532887C319.024428 997.442529 321.215655 996.73038 318.929069 995.997942zM112.19185 86.301833c29.079412 17.226495 62.006659-7.507997 65.006408-31.847865-4.693893-49.706367-74.294777-43.979757-79.772845-2.772511C96.269946 60.316515 100.573273 79.412655 112.19185 86.301833zM29.365489 256.675838c6.191231-7.533358-15.914802-19.953356-17.729666-6.914539C14.856724 254.588086 20.321604 257.311903 29.365489 256.675838zM61.868693 738.487147c1.330968-7.627703-5.661685-14.688324-8.862297-22.152699-0.27086 2.048189-3.579005 1.271115-5.915299 1.382705 6.65078 13.147364 6.178044 32.981014 16.257689 42.923707 5.63328 29.788517 30.564577 53.507538 44.3196 80.299349 11.730167 7.459303 17.292435 20.709126 29.551134 27.683519-1.591683-11.431917-12.828824-13.826035-13.306633-26.306901C94.545369 815.851671 84.333844 771.420481 61.868693 738.487147zM110.617412 620.804041l5.919357 0c-0.339843-2.614256 1.658637-3.051487 1.464876-5.534878-2.0279 0.05681-3.236118-0.65331-4.434192-1.385748-0.438245 2.719759 1.99848 2.748164 2.969316 4.152173C115.615642 619.950883 110.83755 618.243552 110.617412 620.804041zM97.323967 569.574974c1.100686-0.583313 2.986562-8.05276-2.956128-8.302317C95.26259 564.124296 91.982851 570.891739 97.323967 569.574974zM1014.789803 508.657842c26.145602-32.179592 9.929506-81.953928 1.469948-124.605761-6.164856-31.083979-21.20621-60.144116-26.595006-85.832197-2.436726-3.716971-8.055804-4.450423-10.335289-8.309418-17.601844-62.428673-53.120015-108.045764-96.031549-146.75846-9.512564 1.774285-13.192 0.485925-20.682751 4.157245-1.310679-2.461073-4.129855-3.52118-2.957142-8.312461-6.784689 0.615775-13.395905 2.919607-13.298518-5.538936 8.543757 0.585342 13.700243 1.17677 23.643951 2.778598-3.405532-4.3997-4.733457-3.527267-2.956128-11.074828C804.436044 61.51256 704.994906 16.663413 599.633395 6.088713c-44.97291-9.123012-91.663297-6.630491-135.914928-1.385748-18.43167 2.183112-34.466179 13.90212-54.669091 11.080914-38.654872 14.993675-81.436555 26.136472-112.275035 48.449455-4.03551 0.126807-2.969316-2.305861-5.909212 0-18.746152 14.279498-43.300071 23.126578-59.098211 40.162355-34.232854 19.598296-58.509825 48.536698-88.643258 71.98283-0.879534 4.415932 2.770482 4.276951 0 6.929756-18.154724 7.300033-18.502682 23.044407-28.078143 37.382743 3.841749 0.554908 4.272893 4.298255 5.918342 6.923669-17.615032 17.80575-15.407574 59.451242-45.802736 60.911045 15.706839 16.633038-1.016486 38.595019-13.300547 51.229067 5.477054 6.124277-2.098912 11.814367-4.430134 15.224972 1.796603 10.801939-5.254888 17.933572-1.483136 26.307915-8.481875 18.971361-28.53972 27.272664-23.630763 48.452498-4.520421 1.001269-5.388796-1.402994-8.864326-1.383719-0.868375 2.877-2.839465 4.723312-5.909212 5.541979-3.885371 26.028939-2.028914 59.851952-1.479078 92.763983 0.257672 15.378155 5.009389 29.186944 5.909212 42.913563 0.844028 12.776072-5.466909 28.434217 7.39032 36.004096 4.190722 0.239412-1.788488-9.064174 4.430134-6.933814 3.65306 1.197059 5.417201 4.156231 5.902111 8.306374 0.604616 6.106017-7.075838 4.451438-4.430134 12.465648 12.12682 1.656608 13.780385-11.422787 25.116942-16.616807-1.330968-4.049713-1.330968-4.248546 0-8.307389 4.560999-4.569115 8.529555-1.155467 11.821468-6.921641-6.367747 1.523715-6.870918-1.035761-10.343404-1.384734 5.005331-9.826031 9.212285-22.261246 22.167916-20.763907 1.32691-6.531075-8.207972-1.298505-4.437235-5.535892 0.988081 3.82146 5.093589-6.337313 0-1.376618-1.082426-4.290139 8.764909-10.227756 16.256674-11.080914-1.51357-1.344156-2.991634-2.737005-4.440279-4.159274 8.163336-19.204687-16.77912-52.872488 2.962215-63.6866 0.0842-30.598054-8.517381-50.511846-1.485165-84.454565-0.388537-4.694907-7.607413-3.019024-7.385247-8.295215 1.40198-4.240431 7.189457-4.346949 7.385247-9.694152 8.206958-21.500403 7.345684-40.145109 10.343404-60.923219 3.1296-21.671846 24.422039-36.629001 20.680722-60.917132 9.782409-5.799651 14.922663-21.10375 14.786726-31.840764 11.065698 2.565562 24.168425-1.315751 28.066984-9.694152-0.929243-6.509771-6.908453-8.301302-7.394378-15.224972 13.773284-24.93434 40.092358-38.122282 53.192042-63.693701 9.307644 1.339083 9.146345-6.19326 13.293445-9.681978 68.741639-47.855997 167.597437-81.11903 273.324151-74.774615 2.297745 1.994423 5.130109 3.492776 5.900082 6.928742 9.410104 1.794575 17.74184 4.598534 28.076114 5.538936 12.702017 12.664482 37.733745 13.082438 56.133967 20.759849 24.876516 10.386011 53.07335 24.232336 78.304926 33.2397 35.573966 12.6868 75.312278 24.758839 100.458639 45.684045 28.70812 23.872204 36.553931 59.601381 53.190013 92.75891 6.729908 13.398949 14.815131 24.763911 20.691881 38.77052-7.905664-4.599548-15.327432-9.637342-19.205701-18.001541-4.528536 1.007356-4.355064-2.388032-8.866355-1.386763-4.003048-5.747914-9.20214-10.374852-15.34975-14.113127 4.959681-8.683752 7.440028-14.541228 7.440028-17.57344 0-1.947758-0.861274-2.93381-2.567591-2.93381-1.71849 0-4.766934 0.985038-9.167648 2.93381-4.46564 1.985292-10.503688 3.632771-18.105015 4.946493-10.607163-10.566585-29.359402-14.251093-43.508034-20.325662-12.498111-5.370536-21.662716-20.588406-35.460347-20.775066 0.175501 8.117685 9.540969 7.879288 11.814367 6.922655 0.712149 4.36318-4.538681 3.13873-2.950041 8.302317 5.781391 8.038558 14.054288 10.754259 20.681736 18.003569 2.557446 2.80193 3.444082 7.543503 5.734726 11.488726-5.929502 0.158255-12.22015 0.239412-18.888176 0.239412-18.095885 0-35.823522-0.848086-53.17581-2.567591-17.361418-1.707331-36.305389-2.566576-56.842058-2.566576-58.193315 0-101.70845 5.86762-130.552508 17.602859-8.801429 3.918848-14.920634 5.86762-18.336311 5.86762-3.425821 0-6.726865-0.60766-9.901101-1.834138-3.187424-1.214305-5.993412-1.833124-8.434196-1.833124-8.801429 0-15.529309 6.119205-20.17045 18.336311-4.6523 12.228265-6.967291 22.255159-6.967291 30.071551 0 15.161061 8.067977 22.737026 24.202917 22.737026 7.816392 0 16.869406-1.947758 27.137741-5.86762 41.555205-15.642928 83.61358-23.470479 126.151793-23.470479 25.911262 0 46.688357 3.18641 62.343459 9.534882 29.338098 11.254387 50.356634 16.869406 63.077926 16.869406 12.708104 0 23.70989-2.314991 33.004346-6.968306 1.748924-0.873448 3.609438-2.077608 5.580528-3.610453 2.235863 10.404272 14.096895 11.795092 23.311209 15.658145 0.333756 2.616285-1.664724 3.055545-1.472992 5.536907 38.158802 31.153976 64.072094 73.786534 98.987677 107.982867 6.066453 17.673871 34.022861 47.370072 33.973153 67.84283-0.024347 8.87447-9.104752 19.186426-11.814367 30.468203-1.783416 7.378146-2.159779 15.344678-2.963229 22.14154-1.06518 9.118955-3.735231 17.182874-4.428105 24.918109-1.533859 17.056067 8.247536 33.582587 7.391334 49.843319-2.076594 39.29398-32.335819 62.957205-42.850666 89.998573-27.183391 18.361673-42.860811 47.512096-73.866676 62.30288-0.560995 4.538681-4.318544 6.102974-5.912256 9.686036-32.610737 11.391338-50.538222 34.281547-93.072378 33.234628-4.436221 5.0733-9.307644 9.727629-16.252617 12.453475-15.371053-3.586106-28.575226 6.911496-36.931309 9.699224-12.152181 4.048698-36.60364 2.776569-48.756835 4.155216-50.297796 5.677916-112.789365-3.958411-158.085887-15.235116-12.196817-3.038299-25.421279-10.922659-33.972138-13.838209-19.520183-6.677156-34.881092-2.333251-41.368544-18.003569-5.297495 0.503171-5.416186 3.715956-10.343404 1.385748-18.041104-12.298263-38.589947-22.761373-57.621161-30.458059-16.35812-29.440558-51.66224-41.113916-67.954421-70.620414-34.568639-18.360658-46.827338-57.638407-73.86972-83.061715-7.907693 7.516112 8.655348 25.233605-2.95207 34.611246 6.249055 13.737778 11.875234 38.13547 8.866355 58.152737 11.526261 4.826787 17.579526 22.810067 2.94294 27.677432-0.706062 10.879038 12.564051 24.987092 10.348476 37.393902 8.644189 2.243979 12.218121-0.442303 14.774553-6.924684 5.97921 7.094098 6.098916 20.341893 10.335289 29.077383 8.010153 1.493281 6.402239-6.012687 13.295474-5.542993 2.56049 4.525493 7.990878 6.356588 13.293445 8.307389-3.068733 10.263262 7.243223 7.989864 10.349491 12.458547-1.748924 0.678672-3.357853 1.476035-4.435206 2.766424 9.972113-4.813599 8.637087 7.448144 11.820454 11.081929 6.579768 7.510026 23.728151 12.448403 20.681736 26.303857 11.368006-2.816133 8.116671-9.711397 14.773538-12.457533 5.807767 9.830089 11.092074 6.574696 22.160814 15.230044 2.321078-5.251844 9.91226-12.821723 8.869398-16.612749-0.145067 6.055294-7.21279-1.434442-7.386262-4.154202 6.625419-13.439527 0.975908-27.209767 2.944969-38.768491 12.252612 6.057323 14.036028 21.91633 23.644965 30.459073-1.078368 9.477058-9.936607 14.955126-10.336303 26.304872 6.757298 6.190217 16.268848 12.204933 28.065969 9.695166 13.54706 7.144821 15.431921 25.21433 22.165887 38.760375 7.034245 0.512301 8.088266 0.464621 14.766437 2.771497-0.190718 3.407561-0.222166 6.67107 1.474006 8.304346 16.243486 1.923411 20.661447-10.180077 35.464404-5.537921 23.117448-21.349249 57.134222-8.178553 88.638186-12.458547 1.680955-10.792809 9.84632-8.005081 19.209759-12.461591 2.84961 4.428105-0.866346 6.984537 1.477049 12.461591 2.024856 2.711644 8.91302 0.881563 8.866355 5.536907 10.055298-3.583062 21.884882-11.489741 11.814367-15.223957 12.254641-3.271624 19.354826-7.209746 31.032241-8.309418 2.177025 6.065439 7.079896 4.225214 4.430134 12.459562 21.141285-1.001269 35.549619-1.833124 51.704847-5.536907 2.323107 2.438755 0.418971 8.840993 4.441293 9.689079 9.797626 3.986816 12.132906-8.178553 25.115928-5.536907 2.400205 2.654834 2.544258 11.596259-1.484151 12.458547 8.788242 5.730668 14.492534-1.380676 26.597035 0 3.134672-2.134418 6.574696-3.985802 10.341375-5.536907 32.461611-1.180828 48.544814-19.684525 69.434514-30.455015 8.339851-4.304341 16.005089-7.496838 22.166901-12.459562 45.361447-36.646247 81.042946-86.591011 122.623512-125.98948 6.746139-15.362938 20.437252-24.231321 31.02514-36.00511 4.353035 0.902867 5.981239 8.94041 10.337317 5.544008 11.611476-6.739038 1.31778-35.439043 19.209759-33.225498 14.587893 1.801676 8.734475 25.199113 10.34239 40.147138 0.908954 8.471731 5.932545 15.539453 5.906169 23.539462-0.034492 11.171201-5.994427 19.570906 1.481107 24.918109 13.923423-7.019028 17.896037-25.255923 20.680722-38.764433 7.518141-36.499151 5.750957-80.157325 8.862297-117.683106 0.287091-3.501906 2.918593-7.68857 2.95207-11.071784 0.095359-7.673353-4.374339-14.504707-4.435206-22.153713C1001.315784 557.791041 1029.723625 535.682978 1014.789803 508.657842zM899.557625 428.356464c-15.245261-7.869143-19.537429-25.99039-32.509291-35.992937-14.496591-27.025136-42.672122-41.23768-63.533417-62.301866-3.478573 0.033477-4.345934-2.388032-8.859254-1.387777-8.16435-7.624659-17.44156-14.962227-27.657143-21.538952 4.03551-5.00736 8.352025-10.84556 12.963747-17.539963 1.001269 0.998226 1.966018 2.021813 2.877 3.079892 6.968306 8.120729 10.80904 18.044148 19.202658 24.923181 6.453976 5.297495 14.551372 6.55745 20.690866 11.074828 12.234352 9.035769 19.822491 26.797898 32.501175 34.61226 11.126565 16.794337 24.50421 31.492805 42.839507 41.534915C901.316694 411.927332 904.224128 420.560362 899.557625 428.356464zM163.801338 771.712645c-5.231555-0.747655-3.627698 4.902871-8.859254 4.157245-3.985802-3.165106-2.860769-6.995696-4.434192-9.69821 2.524984-1.797618 8.324635 0.861274 13.293445-1.379662C162.765578 769.051724 162.765578 767.451925 163.801338 771.712645zM284.952873 817.40582c-3.086993-0.801421-4.219127-3.436981-8.864326-2.771497-0.335785-2.462087 1.484151-6.938886-2.951056-5.534878 4.872437-4.554912-3.967542-3.312202-2.963229-8.307389 5.304596-0.815623 7.160038 1.601828 10.349491 2.768453C277.184161 809.170457 286.102253 807.396172 284.952873 817.40582zM425.301993 900.469564C416.946924 878.085569 447.496284 896.107398 425.301993 900.469564L425.301993 900.469564zM453.382164 900.469564c0.117677-1.965003 0.232311-3.91479-1.48618-4.154202 0.384479-3.238147 6.489482-0.793305 7.392349 0C458.00403 898.351377 457.068701 900.708976 453.382164 900.469564zM707.495542 724.640823c3.580019 6.883091 14.296743 3.269595 13.293445-5.535892C715.834379 715.818089 706.794552 718.275104 707.495542 724.640823zM828.634903 644.335387c-3.68045-0.216079-4.578245 2.178039-7.39032 2.779612-0.32767 2.610198 1.669796 3.052501 1.487194 5.529805l5.903126 0C830.653673 650.876606 830.653673 646.112716 828.634903 644.335387zM862.617186 691.410253c-1.897035 1.826023-1.897035 5.104748 0 6.926713l5.914285 0C869.633171 693.141931 866.856602 691.587783 862.617186 691.410253zM923.187374 804.940171c13.2762 1.367488 21.794595-1.725591 28.075099-6.916568C943.437965 793.039575 928.653268 799.184142 923.187374 804.940171zM378.033366 173.614123c3.771751-0.149125 7.039318-0.78519 8.866355-2.76541C384.305754 167.459412 378.475669 168.035624 378.033366 173.614123zM174.150829 568.188211l0-4.148115c-4.172462 1.143293-3.831604-1.953844-7.394378-1.381691C165.62026 568.053288 171.649178 570.371323 174.150829 568.188211zM332.228601 183.308275c-11.595244-0.263759-14.737018 7.412638-23.638878 9.688065C316.905227 195.373212 329.828395 190.99583 332.228601 183.308275zM189.124215 677.19568c0 8.801429 6.601072 16.754773 19.803216 23.836698 13.202144 7.092069 28.11162 10.633539 44.7406 10.633539 16.616807 0 34.838484-7.575965 54.640686-22.737026 19.803216-15.150916 33.853447-40.820738 42.173009-77.011493 8.308403-36.179597 12.468692-72.360208 12.468692-108.549949l-1.466905-53.542029c0-27.378167 1.1017-59.524283 3.302058-96.448491 2.200357-36.913049 4.148115-59.650075 5.866605-68.211078 1.708346-8.54883 2.567591-15.517135 2.567591-20.902888 0-13.684011-4.160288-20.536669-12.468692-20.536669-8.320577 0-16.388554 4.286081-24.202917 12.834911-7.828565 8.561003-11.735239 21.395914-11.735239 38.506761 0 5.86762 1.099671 13.69517 3.300029 23.470479 2.200357 9.786467 3.300029 40.339885 3.300029 91.681557 0 2.482376-0.004058 4.924175-0.011159 7.343655-1.204161 2.948012-1.355315 6.135436-0.040578 8.695926-0.281005 43.314273-1.730664 76.112684-4.348977 98.377988-2.934824 24.937383-8.686796 46.208519-17.23664 63.809349-8.559989 17.604888-18.221678 29.831124-28.970865 36.672623-10.761361 6.852657-28.730438 13.933568-53.908248 21.270121C201.707541 653.724187 189.124215 663.992522 189.124215 677.19568zM280.804758 347.876542c0.973879-2.93381 1.466905-6.841498 1.466905-11.735239 0-14.176023-2.693383-27.745401-8.067977-40.706104-5.387781-12.949544-13.087511-19.435983-23.103245-19.435983-10.027908 0-20.296242 4.766934-30.803989 14.301816-10.51992 9.534882-15.769735 22.862819-15.769735 39.972652 0 17.120992 5.375608 35.93917 16.135954 56.475839 3.908703 6.852657 5.86762 25.922421 5.86762 57.210306 0 16.13494-0.618819 30.690369-1.834138 43.639914-1.225464 12.961718-1.834138 26.530081-1.834138 40.706104 0 14.187182 1.947758 27.755545 5.86762 40.706104 3.909718 12.960703 8.182611 19.435983 12.834911 19.435983 4.642156 0 10.634553-10.015735 17.970092-30.072565 7.33351-20.043643 11.001787-44.006133 11.001787-71.877326l-1.466905-41.073337c0-14.176023 1.099671-31.045429 3.300029-50.608219C274.570919 375.266883 277.377922 359.611782 280.804758 347.876542zM417.226914 612.651864c0 16.62898 0.848086 27.389326 2.566576 32.271908 1.708346 4.893741 4.766934 7.334525 9.167648 7.334525s11.11642-3.302058 20.17045-9.90313c9.041856-6.601072 15.276709-13.568363 18.704559-20.901873 3.413648-7.33351 5.866605-23.218893 7.33351-47.67441 1.466905-24.444357 2.683239-52.555977 3.667262-84.346018 0.1684-2.872942 0.606645-5.55821 1.27923-8.081165 11.245257-5.167644 19.077879-13.325908 24.375374-23.405553 0.845043-0.273903 1.695158-0.540706 2.582808-0.784175 17.8443-4.882582 30.072565-7.33351 36.671608-7.33351s11.850887 5.500386 15.768721 16.503187c3.909718 11.001787 5.86762 24.089297 5.86762 39.239199 0 15.161061-1.717476 32.030467-5.134167 50.608219-3.426836 18.586882-5.136196 46.45909-5.136196 83.61358 0 37.165649 0.848086 61.368565 2.567591 72.610779 1.707331 11.241199 5.009389 16.869406 9.901101 16.869406 4.882582 0 13.203159-2.566576 24.937383-7.701758 11.735239-5.135182 19.676409-11.11642 23.836698-17.970092 4.149129-6.841498 6.234853-15.517135 6.234853-26.037055 0-10.507746-0.734467-22.370807-2.200357-35.570922-7.828565-69.91841-11.734225-115.884473-11.734225-137.888047s1.099671-36.914064 3.300029-44.741614c2.200357-7.816392 5.741827-12.950559 10.634553-15.402502 4.882582-2.440784 18.818178-3.667262 41.80679-3.667262 22.976438 0 35.93917 3.18641 38.871966 9.534882 2.934824 6.360646 4.401729 21.02868 4.401729 44.006133 0 44.499159 2.808017 81.297574 8.433182 110.384087 5.61502 29.097672 13.316778 43.641943 23.103245 43.641943 5.374594 0 10.141527-5.136196 14.30283-15.40453 4.148115-10.268334 6.234853-23.217879 6.234853-38.871966 0-15.642928-1.226479-35.44513-3.666248-59.409649-2.452957-23.951331-3.667262-44.488-3.667262-61.608992 0-17.108818 3.540455-32.752761 10.634553-46.939943 7.08091-14.176023 10.633539-27.137741 10.633539-38.87298 0-15.150916-5.627193-22.737026-16.869406-22.737026-6.853672 0-13.202144 2.567591-19.069764 7.701758s-11.620606 7.700744-17.235625 7.700744c-5.627193 0-13.69517-1.581539-24.202917-4.766934-10.51992-3.174236-25.303602-5.008375-44.373366-5.501401-19.069764-0.480853-32.030467-6.108046-38.871966-16.869406-10.268334-16.135954-20.536669-24.203931-30.805003-24.203931s-18.336311 9.786467-24.201902 29.338098c-3.426836 9.786467-13.69517 15.895528-30.805003 18.336311-17.122006 2.452957-32.157274 5.501401-45.106819 9.168663-12.961718 3.667262-21.637355 5.500386-26.038069 5.500386s-8.067977-0.240426-11.002801-0.733452c-2.93381-0.481867-5.386767-0.733452-7.33351-0.733452-13.694156 0-20.535654 11.735239-20.535654 35.205718 0 12.720277 2.566576 24.937383 7.700744 36.671608 5.136196 11.734225 7.701758 22.002559 7.701758 30.805003 0 11.254387-3.666248 35.457303-11.001787 72.610779C418.692805 579.899104 417.226914 596.034043 417.226914 612.651864zM458.297209 945.727537l3.066704 0 0-0.73751-0.998226 0 0-3.554658-0.831855 0 0 3.554658-1.236623 0 0-3.245248-0.831855 0 0 6.074569c0 2.020798-0.285062 3.527267-0.856202 4.517377 0.285062 0.237383 0.515344 0.467665 0.689831 0.689831 0.621862-1.216334 0.952575-2.773526 0.993153-4.671575l1.313722 0 0 4.505204 0.831855 0 0-5.242714-2.13949 0L458.298223 945.727537zM467.760064 945.750869l0-0.713163-5.01649 0 0-1.96196c1.394878-0.023333 3.2138-0.162313 5.456765-0.415927l-0.320568-0.879534c-1.664724 0.293178-3.654074 0.459549-5.968051 0.499113l0 4.731428c0 1.236623-0.087243 2.215574-0.26173 2.936853-0.182602 0.744611-0.527518 1.517628-1.034746 2.318034 0.205935 0.230282 0.403754 0.483896 0.594472 0.760843 1.022573-1.386763 1.533859-3.182352 1.533859-5.385753l0-1.818922 0.565053 0c0.230282 1.893991 0.739539 3.394373 1.527772 4.500132-0.646209 0.654325-1.565307 1.2701-2.758309 1.848341 0.222166 0.285062 0.415927 0.567081 0.582298 0.844028 1.14938-0.661426 2.050218-1.331982 2.704543-2.008625 0.563024 0.617804 1.357344 1.240681 2.383974 1.866601 0.197819-0.26173 0.440274-0.554908 0.725337-0.879534-1.109816-0.503171-1.953844-1.058079-2.532085-1.664724C466.836908 949.178719 467.442539 947.652976 467.760064 945.750869zM464.140481 945.821881l2.716716 0c-0.273903 1.604871-0.754756 2.879029-1.444587 3.822474C464.762343 948.649173 464.3383 947.376029 464.140481 945.821881zM473.846806 947.629644c-0.436217-0.52346-1.010399-1.120975-1.723563-1.795589l-0.511286 0.47578 0-1.569365 1.675883 0 0-0.831855-1.675883 0 0-2.519911L470.708076 941.388704l0 2.519911-1.854428 0 0 0.831855 1.70023 0c-0.403754 1.529801-1.010399 2.912506-1.818922 4.149129 0.158255 0.357089 0.293178 0.705048 0.403754 1.045905 0.617804-0.919098 1.141264-2.045145 1.569365-3.376113l0 6.514843 0.903881 0 0-6.550349c0.483896 0.507229 0.991125 1.097643 1.521686 1.771242L473.846806 947.629644zM479.802684 943.028066l0-0.867361-6.752226 0 0 0.891708 0.73751 0c0.285062 2.932795 1.026631 5.151413 2.222675 6.657882-0.879534 0.879534-2.155721 1.712404-3.827546 2.496579 0.269846 0.317525 0.490997 0.617804 0.665484 0.903881 1.617045-0.816638 2.877-1.696172 3.780881-2.639617 0.808522 0.864317 1.893991 1.648493 3.257422 2.35354 0.190718-0.285062 0.455491-0.613747 0.796349-0.987067-1.41111-0.563024-2.544258-1.276187-3.40046-2.13949C478.590408 948.010065 479.430378 945.786375 479.802684 943.028066zM474.738514 943.052413l4.05377 0c-0.332742 2.473246-1.045905 4.442307-2.13949 5.908198C475.613991 947.581964 474.975897 945.611888 474.738514 943.052413zM486.887652 944.734383c-0.209993 0-0.390566 0.073041-0.540706 0.220137s-0.226224 0.322597-0.226224 0.528532 0.073041 0.384479 0.220137 0.53259 0.328684 0.222166 0.546792 0.222166 0.400711-0.073041 0.546792-0.222166 0.220137-0.326655 0.220137-0.53259-0.07507-0.38245-0.226224-0.528532S487.097645 944.734383 486.887652 944.734383zM486.887652 950.089702c-0.209993 0-0.390566 0.073041-0.540706 0.220137s-0.226224 0.324626-0.226224 0.534619c0 0.21405 0.07507 0.394624 0.226224 0.538677s0.330713 0.216079 0.540706 0.216079 0.390566-0.071012 0.540706-0.216079 0.226224-0.324626 0.226224-0.538677c0-0.209993-0.07507-0.388537-0.226224-0.534619S487.097645 950.089702 486.887652 950.089702zM500.012697 949.75696c-0.063911 0.230282-0.099417 0.432159-0.106518 0.606645l-0.053766 0c-0.023333-0.26173-0.055795-0.463607-0.095359-0.606645l-1.378647-4.880553-1.076339 0-1.415168 4.856206c-0.059853 0.193761-0.097388 0.400711-0.112605 0.617804l-0.047679 0c-0.020289-0.253614-0.049708-0.453462-0.089272-0.600559l-1.313722-4.874466-1.212276 0 1.973119 6.573682 1.17677 0 1.415168-4.62491c0.079128-0.245499 0.124778-0.451433 0.136952-0.617804l0.023333 0c0.016231 0.222166 0.051737 0.432159 0.106518 0.629978l1.307635 4.612736 1.212276 0 1.96196-6.573682-1.129091 0L500.012697 949.75696zM509.624678 949.75696c-0.063911 0.230282-0.099417 0.432159-0.106518 0.606645l-0.053766 0c-0.023333-0.26173-0.055795-0.463607-0.095359-0.606645l-1.378647-4.880553-1.076339 0-1.415168 4.856206c-0.059853 0.193761-0.097388 0.400711-0.112605 0.617804l-0.047679 0c-0.020289-0.253614-0.049708-0.453462-0.089272-0.600559l-1.313722-4.874466-1.212276 0 1.973119 6.573682 1.17677 0 1.415168-4.62491c0.079128-0.245499 0.124778-0.451433 0.136952-0.617804l0.023333 0c0.016231 0.222166 0.051737 0.432159 0.106518 0.629978l1.307635 4.612736 1.212276 0 1.96196-6.573682-1.129091 0L509.624678 949.75696zM522.617844 950.078543c-0.218108 0-0.400711 0.073041-0.546792 0.220137s-0.220137 0.326655-0.220137 0.540706c0 0.205935 0.072026 0.384479 0.217094 0.53259s0.325641 0.222166 0.543749 0.222166c0.226224 0 0.41187-0.073041 0.558966-0.222166s0.220137-0.326655 0.220137-0.53259c0-0.209993-0.073041-0.388537-0.220137-0.536648S522.84001 950.078543 522.617844 950.078543zM528.419524 942.048101 525.143842 942.998647 525.143842 944.068899 527.26 943.456167 527.26 950.446791 525.197608 950.446791 525.197608 951.451103 530.475828 951.451103 530.475828 950.446791 528.419524 950.446791ZM532.140552 947.35574l3.500891 0 0 0.897794-3.500891 0 0-0.897794ZM540.557503 946.648664l0-0.023333c1.228508-0.344915 1.842254-1.119961 1.842254-2.324121 0-0.654325-0.237383-1.184886-0.713163-1.594726s-1.105758-0.615775-1.889934-0.615775c-0.804464 0-1.507483 0.174487-2.110071 0.52346l0 1.099671c0.571139-0.436217 1.178799-0.654325 1.825008-0.654325 1.129091 0 1.694143 0.5052 1.694143 1.515599 0 1.093585-0.739539 1.640377-2.217603 1.640377l-0.731424 0 0 0.96272 0.76693 0c1.668782 0 2.502666 0.582298 2.502666 1.74791 0 0.52346-0.185646 0.941416-0.555922 1.25184s-0.872433 0.465636-1.506469 0.465636c-0.792291 0-1.503425-0.24347-2.134418-0.731424l0 1.206189c0.534619 0.324626 1.238652 0.486939 2.110071 0.486939 0.991125 0 1.78443-0.253614 2.380931-0.760843s0.894751-1.174741 0.894751-2.003553c0-0.594472-0.192747-1.089527-0.579255-1.488209S541.222987 946.719676 540.557503 946.648664zM544.545333 947.35574l3.500891 0 0 0.897794-3.500891 0 0-0.897794ZM549.444147 943.27255 554.044709 943.27255 550.620917 951.451103 551.827106 951.451103 555.429443 942.647645 555.429443 942.243891 549.444147 942.243891ZM557.497921 950.078543c-0.218108 0-0.400711 0.073041-0.546792 0.220137s-0.220137 0.326655-0.220137 0.540706c0 0.205935 0.072026 0.384479 0.217094 0.53259s0.325641 0.222166 0.543749 0.222166c0.226224 0 0.41187-0.073041 0.558966-0.222166s0.220137-0.326655 0.220137-0.53259c0-0.209993-0.073041-0.388537-0.220137-0.536648S557.720087 950.078543 557.497921 950.078543zM560.490569 945.713334c-0.623891 0.659397-0.936344 1.527772-0.936344 2.605126 0 0.970835 0.28912 1.761097 0.867361 2.371801s1.343141 0.91504 2.294702 0.91504c0.709105 0 1.315751-0.15014 1.818922-0.451433l0-1.070252c-0.503171 0.372306-1.03779 0.558966-1.604871 0.558966-0.669542 0-1.202132-0.21405-1.595741-0.642151s-0.591428-1.020544-0.591428-1.777329c0-0.768958 0.208978-1.382705 0.626934-1.844283s0.959676-0.693889 1.626175-0.693889c0.567081 0 1.081411 0.170429 1.545018 0.511286l0-1.153438c-0.428101-0.21405-0.943445-0.320568-1.545018-0.320568C561.950373 944.72221 561.114461 945.052923 560.490569 945.713334zM569.035341 944.72221c-1.03779 0-1.860514 0.315496-2.46716 0.943445s-0.908954 1.484151-0.908954 2.56962c0 1.010399 0.293178 1.825008 0.879534 2.442813s1.371546 0.927214 2.35354 0.927214c1.006341 0 1.808777-0.31854 2.407307-0.956633s0.897794-1.476035 0.897794-2.514839c0-1.066194-0.27999-1.900078-0.840985-2.504694S570.022408 944.72221 569.035341 944.72221zM570.486015 950.004488c-0.348973 0.426072-0.856202 0.638093-1.521686 0.638093-0.646209 0-1.160539-0.218108-1.542989-0.654325s-0.573168-1.032717-0.573168-1.789502c0-0.781132 0.189703-1.394878 0.568096-1.842254s0.894751-0.671571 1.548061-0.671571c0.665484 0 1.172712 0.21405 1.521686 0.642151s0.52346 1.041847 0.52346 1.842254C571.00846 948.966698 570.833974 949.578416 570.486015 950.004488zM581.131727 944.72221c-0.970835 0-1.70023 0.447376-2.187169 1.343141-0.130865-0.41187-0.36419-0.739539-0.70099-0.98098s-0.725337-0.362161-1.164597-0.362161c-0.899823 0-1.583567 0.398682-2.050218 1.19503l-0.023333 0 0-1.039818-1.164597 0 0 6.573682 1.164597 0 0-3.739289c0-0.590414 0.146082-1.076339 0.437231-1.45676s0.658383-0.571139 1.102715-0.571139c0.96272 0 1.444587 0.623891 1.444587 1.872688l0 3.893486 1.164597 0 0-3.744361c0-0.546792 0.152169-1.020544 0.45752-1.42024s0.671571-0.600559 1.099671-0.600559c0.507229 0 0.871419 0.154197 1.093585 0.461578s0.332742 0.816638 0.332742 1.529801l0 3.774795 1.164597 0 0-4.05377C583.301651 945.613917 582.578343 944.72221 581.131727 944.72221z" fill="#272636"></path></g></g></svg>