<?xml version="1.0" standalone="no"?><!DOCTYPE svg PUBLIC "-//W3C//DTD SVG 1.1//EN" "http://www.w3.org/Graphics/SVG/1.1/DTD/svg11.dtd"><svg width="16" height="16" viewBox="0 0 16 16" version="1.1" xmlns="http://www.w3.org/2000/svg" xmlns:xlink="http://www.w3.org/1999/xlink"><defs><style type="text/css"><![CDATA[
@font-face { font-family: ifont; src: url("//at.alicdn.com/t/font_1442373896_4754455.eot?#iefix") format("embedded-opentype"), url("//at.alicdn.com/t/font_1442373896_4754455.woff") format("woff"), url("//at.alicdn.com/t/font_1442373896_4754455.ttf") format("truetype"), url("//at.alicdn.com/t/font_1442373896_4754455.svg#ifont") format("svg"); }

]]></style></defs><g class="transform-group"><g transform="scale(0.015625, 0.015625)"><path d="M1024 992 0 992 0 128l512 0 0 64L64 192l0 736 896 0 0-448 64 0L1024 992zM548.266667 689.066667l-59.733333-121.6-121.6-59.733333L738.133333 136.533333l44.8 44.8L475.733333 490.666667l59.733333 29.866667 29.866667 59.733333 307.2-307.2 44.8 44.8L548.266667 689.066667zM964.266667 273.066667l-181.333333-181.333333 23.466667-23.466667c23.466667-23.466667 55.466667-38.4 89.6-38.4 34.133333 0 66.133333 12.8 89.6 38.4C1011.2 93.866667 1024 125.866667 1024 160c0 34.133333-12.8 66.133333-38.4 89.6L964.266667 273.066667zM878.933333 98.133333l78.933333 78.933333C960 170.666667 960 166.4 960 160c0-17.066667-6.4-34.133333-19.2-44.8C925.866667 98.133333 900.266667 91.733333 878.933333 98.133333L878.933333 98.133333zM230.4 825.6l87.466667-264.533333 59.733333 19.2L330.666667 725.333333l142.933333-46.933333 19.2 59.733333L230.4 825.6z" fill="#ffffff"></path></g></g></svg>