<?xml version="1.0" standalone="no"?><!DOCTYPE svg PUBLIC "-//W3C//DTD SVG 1.1//EN" "http://www.w3.org/Graphics/SVG/1.1/DTD/svg11.dtd"><svg width="16" height="16" viewBox="0 0 16 16" version="1.1" xmlns="http://www.w3.org/2000/svg" xmlns:xlink="http://www.w3.org/1999/xlink"><defs><style type="text/css"><![CDATA[
@font-face { font-family: ifont; src: url("//at.alicdn.com/t/font_1442373896_4754455.eot?#iefix") format("embedded-opentype"), url("//at.alicdn.com/t/font_1442373896_4754455.woff") format("woff"), url("//at.alicdn.com/t/font_1442373896_4754455.ttf") format("truetype"), url("//at.alicdn.com/t/font_1442373896_4754455.svg#ifont") format("svg"); }

]]></style></defs><g class="transform-group"><g transform="scale(0.015625, 0.015625)"><path d="M943.834704 211.291241l0 601.418542-863.670431 0L80.164273 211.291241 943.834704 211.291241M943.834704 174.452217l-863.670431 0c-20.345374 0-36.839023 16.492626-36.839023 36.839023l0 601.418542c0 20.346397 16.493649 36.839023 36.839023 36.839023l863.670431 0c20.346397 0 36.839023-16.492626 36.839023-36.839023L980.673727 211.291241C980.673727 190.944843 964.181101 174.452217 943.834704 174.452217L943.834704 174.452217zM814.62797 414.785911c0 10.172687-8.246825 18.419512-18.419512 18.419512L611.548762 433.205423c-10.172687 0-18.419512-8.246825-18.419512-18.419512l0 0c0-10.172687 8.246825-18.419512 18.419512-18.419512l184.659697 0C806.382169 396.3664 814.62797 404.613224 814.62797 414.785911L814.62797 414.785911zM814.62797 512c0 10.172687-8.246825 18.419512-18.419512 18.419512L611.548762 530.419512c-10.172687 0-18.419512-8.246825-18.419512-18.419512l0 0c0-10.172687 8.246825-18.419512 18.419512-18.419512l184.659697 0C806.382169 493.580488 814.62797 501.827313 814.62797 512L814.62797 512zM814.62797 609.214089c0 10.172687-8.246825 18.419512-18.419512 18.419512L611.548762 627.6336c-10.172687 0-18.419512-8.246825-18.419512-18.419512l0 0c0-10.172687 8.246825-18.419512 18.419512-18.419512l184.659697 0C806.382169 590.794577 814.62797 599.041402 814.62797 609.214089L814.62797 609.214089zM513.291924 628.996644c-9.476839-31.974225-29.40368-60.7322-56.109925-80.975243-9.865695-7.479345-20.415982-13.68979-31.483038-18.594497 18.152429-16.762779 29.52443-40.758286 29.52443-67.414389 0-50.667983-41.075511-91.742471-91.743494-91.742471-50.669006 0-91.743494 41.075511-91.743494 91.742471 0 26.151613 10.942213 49.745984 28.497031 66.457598-12.0525 5.122671-23.511483 11.782348-34.166147 19.924795-26.813692 20.488637-46.692439 49.54644-55.973826 81.818447-2.812045 9.777691 2.834558 19.981077 12.611226 22.793122 1.701758 0.490164 3.413749 0.722454 5.100158 0.722454 8.002254 0 15.371082-5.258771 17.692964-13.332656 14.027481-48.774867 57.643861-83.60821 107.793028-87.207178 3.346211 0.369414 6.744611 0.566912 10.18906 0.566912 2.982938 0 5.931083-0.148379 8.842389-0.425695 48.947805 4.304026 91.533716 38.507012 105.650225 86.134753 2.889817 9.752108 13.138228 15.315824 22.89443 12.426007C510.618025 649.001257 516.181741 638.749776 513.291924 628.996644zM371.591645 516.314259c-3.222391-0.193405-6.464225-0.290619-9.721409-0.290619-2.430352 0-4.849448 0.060375-7.261381 0.166799-26.069749-4.253884-46.033429-26.923186-46.033429-54.1769 0-30.274514 24.629957-54.903447 54.904471-54.903447s54.904471 24.628934 54.904471 54.903447C418.383344 489.531266 398.032854 512.38067 371.591645 516.314259z" fill="#ff6600"></path></g></g></svg>