<?xml version="1.0" standalone="no"?><!DOCTYPE svg PUBLIC "-//W3C//DTD SVG 1.1//EN" "http://www.w3.org/Graphics/SVG/1.1/DTD/svg11.dtd"><svg width="32" height="32" viewBox="0 0 32 32" version="1.1" xmlns="http://www.w3.org/2000/svg" xmlns:xlink="http://www.w3.org/1999/xlink"><defs><style type="text/css"><![CDATA[
@font-face { font-family: ifont; src: url("//at.alicdn.com/t/font_1442373896_4754455.eot?#iefix") format("embedded-opentype"), url("//at.alicdn.com/t/font_1442373896_4754455.woff") format("woff"), url("//at.alicdn.com/t/font_1442373896_4754455.ttf") format("truetype"), url("//at.alicdn.com/t/font_1442373896_4754455.svg#ifont") format("svg"); }

]]></style></defs><g class="transform-group"><g transform="scale(0.03125, 0.03125)"><path d="M704.713628 926.782841 117.180328 926.782841c-39.306214 0-71.284533-31.974225-71.284533-71.275323L45.895795 168.932504c0-39.305191 31.978319-71.28044 71.284533-71.28044l583.490218 0c12.344143-0.010233 22.385846-10.117428 22.385846-22.529109 0-10.812253-7.841595-20.228717-18.342764-22.159696L117.180328 52.963259c-63.948451 0-115.974361 52.023864-115.974361 115.969245L1.205966 855.507518c0 63.942311 52.02591 115.963105 115.974361 115.963105L700.651103 971.470623c12.354376 0 22.405289-10.107195 22.405289-22.530133C723.056392 938.12926 715.214796 928.71382 704.713628 926.782841zM1014.655679 494.214938 877.391433 356.451318l-0.01228 0.014326-23.078625-23.160489-25.891693-25.921369c-4.218068-4.224208-9.834996-6.54916-15.816221-6.54916-6.01704 0-11.683087 2.350534-15.95539 6.618744-8.115841 8.104585-8.904811 20.820188-1.906419 29.740348l39.761586 39.904849 0.011256-0.01228 111.710244 112.116497L503.436462 489.202785c-12.353352 0-22.404266 10.105149-22.404266 22.528086 0 12.421914 10.04989 22.528086 22.404266 22.528086l442.778452 0-101.386108 101.757568-6.42841 6.318916L791.063275 689.844477c-4.669346 9.289574-3.219321 20.015869 3.75758 27.003004 4.158716 4.164856 9.79918 6.460132 15.879666 6.460132 6.684236 0 13.06148-2.693342 17.956977-7.579629l12.432147-12.415774 34.102702-34.228569 6.431479-6.320962 133.027759-133.509736c4.39203-4.41352 6.628978-10.479679 6.300496-17.080004l-0.022513-0.441045 0.022513-0.441045C1021.280564 504.669034 1019.049756 498.609015 1014.655679 494.214938z" fill="#ffffff"></path></g></g></svg>