<?xml version="1.0" standalone="no"?><!DOCTYPE svg PUBLIC "-//W3C//DTD SVG 1.1//EN" "http://www.w3.org/Graphics/SVG/1.1/DTD/svg11.dtd"><svg width="16" height="16" viewBox="0 0 16 16" version="1.1" xmlns="http://www.w3.org/2000/svg" xmlns:xlink="http://www.w3.org/1999/xlink"><defs><style type="text/css"><![CDATA[
@font-face { font-family: ifont; src: url("//at.alicdn.com/t/font_1442373896_4754455.eot?#iefix") format("embedded-opentype"), url("//at.alicdn.com/t/font_1442373896_4754455.woff") format("woff"), url("//at.alicdn.com/t/font_1442373896_4754455.ttf") format("truetype"), url("//at.alicdn.com/t/font_1442373896_4754455.svg#ifont") format("svg"); }

]]></style></defs><g class="transform-group"><g transform="scale(0.015625, 0.015625)"><path d="M843.648 145.632c-151.328-2.848-266.848-49.152-309.984-69.12-14.4-6.112-29.792-6.336-45.056 0.224-42.688 19.744-158.304 66.048-309.856 68.896C149.632 146.72 126.752 170.112 126.752 198.912l0 452.672 0.992 5.664c3.616 9.984 91.488 244.608 368.64 315.776 4.544 0.992 8.704 1.504 12.8 1.504 4.128 0 8.192-0.48 13.312-1.632 242.496-62.304 343.84-250.88 368.8-306.528C894.4 660.192 896 652.736 896 644.256L896 198.912C896 170.112 873.12 146.72 843.648 145.632zM862.752 644.256c0 4.32-0.704 6.4-1.44 7.872-23.744 52.864-118.944 229.984-346.528 288.48-4.416 0.928-7.36 0.864-10.656 0.128C259.936 878.016 170.208 673.696 160 648.48L160 198.912c0-10.656 8.96-19.648 19.712-20.096 157.536-2.944 278.272-51.328 322.368-71.744 6.08-2.528 12.96-2.368 18.08-0.224 44.576 20.672 165.216 69.024 322.528 71.968 11.072 0.448 20.032 9.44 20.032 20.096L862.72 644.256zM648.576 627.392c6.08 6.816 16.64 7.424 23.456 1.408 6.848-6.08 7.488-16.608 1.408-23.456-29.44-33.216-67.552-56.672-109.28-68.768 49.28-23.936 83.584-73.952 83.584-132.224 0-81.344-66.272-147.52-147.744-147.52-81.504 0-147.808 66.176-147.808 147.52 0 58.272 34.368 108.352 83.68 132.256-82.976 24.608-148.512 95.328-162.592 183.552-1.44 9.056 4.704 17.6 13.792 19.04 0.896 0.128 1.792 0.224 2.656 0.224 8 0 15.072-5.856 16.384-14.016 15.04-94.048 98.4-164.992 193.92-164.992C556.672 560.416 610.816 584.8 648.576 627.392zM766.144 580.416l-160.256 159.936c-1.056 1.088-3.04 2.496-5.696 2.592-1.856-0.192-3.84-0.768-6.816-4.672l-75.712-87.296c-6.08-7.008-16.608-7.68-23.424-1.696-6.944 6.016-7.68 16.544-1.696 23.424l75.04 86.4c7.392 9.856 17.536 15.648 30.944 16.928 12.128 0 22.784-4.224 30.848-12.224l160.288-159.968c6.464-6.464 6.496-16.992 0-23.488S772.672 573.92 766.144 580.416z" fill="#272636"></path></g></g></svg>