<?xml version="1.0" standalone="no"?><!DOCTYPE svg PUBLIC "-//W3C//DTD SVG 1.1//EN" "http://www.w3.org/Graphics/SVG/1.1/DTD/svg11.dtd"><svg width="16" height="16" viewBox="0 0 16 16" version="1.1" xmlns="http://www.w3.org/2000/svg" xmlns:xlink="http://www.w3.org/1999/xlink"><defs><style type="text/css"><![CDATA[
@font-face { font-family: ifont; src: url("//at.alicdn.com/t/font_1442373896_4754455.eot?#iefix") format("embedded-opentype"), url("//at.alicdn.com/t/font_1442373896_4754455.woff") format("woff"), url("//at.alicdn.com/t/font_1442373896_4754455.ttf") format("truetype"), url("//at.alicdn.com/t/font_1442373896_4754455.svg#ifont") format("svg"); }

]]></style></defs><g class="transform-group"><g transform="scale(0.015625, 0.015625)"><path d="M783.731077 824.073203M875.451587 852.594969c-29.737126-14.839159-220.764348-63.061526-244.6403-78.096711-27.306405-17.19147-18.563651-111.303496-18.563651-111.303496l18.563651-16.289751c0 0 4.704621-42.537616 12.780887-57.964853 18.073586-34.637773 37.068494-92.798652 37.068494-92.798652s18.622459-13.506183 18.622459-37.146905c0-23.562311-18.622459-37.088097-18.622459-37.088097s6.998124-65.747081 6.998124-111.381906c0-95.876259-60.199548-148.4504-168.405835-148.4504-108.186684 0-187.087101 44.674298-187.087101 148.4504 0 45.634825 14.427505 111.381906 14.427505 111.381906s-18.524446 13.506183-18.524446 37.088097c0 23.621119 18.524446 37.146905 18.524446 37.146905s21.66086 67.315288 37.146905 92.798652c9.075998 14.878364 12.702477 57.964853 12.702477 57.964853l18.642061 16.289751c0 0 8.742754 94.112026-18.642061 111.303496-24.640453 15.564455-208.630346 61.669742-234.348941 76.685325 0 0 107.912248 146.274513 329.382289 147.352655C743.134117 999.751598 875.451587 852.594969 875.451587 852.594969zM512.019603 1024C229.703128 1024 0 794.316475 0 512.019603 0 229.703128 229.703128 0 512.019603 0c282.296872 0 511.980397 229.703128 511.980397 512.019603C1024 794.316475 794.316475 1024 512.019603 1024zM512.019603 34.931812C248.95287 34.931812 34.931812 248.933267 34.931812 512.019603c0 263.04713 214.021057 477.048585 477.08779 477.048585 263.04713 0 477.068188-214.001455 477.068188-477.048585C989.08779 248.933267 775.066733 34.931812 512.019603 34.931812z" fill="#272636"></path></g></g></svg>